<svg version="1" xmlns="http://www.w3.org/2000/svg" width="346.667" height="346.667" viewBox="0 0 260.000000 260.000000"><path d="M115 .7C82.8 5.6 60.1 16.8 38.4 38.4 12.1 64.8-.4 95.9.5 133c.2 8 .6 15.6.9 17 .4 1.4.9 3.8 1.2 5.5 2.6 14.7 9.9 32.3 19.5 47 6.5 9.9 24.9 28.5 34.6 34.9 15.3 10 29.2 16 46.3 19.7 13.8 3.1 38.9 3.3 52 .5 54.7-11.7 94.5-53.1 103.4-107.7 1.3-8 1.5-32.4.3-39.4-4.8-27.5-16.2-50.6-34.8-69.9-20.3-21.3-44.7-34.1-74.4-39.3C145.8.7 118.4.2 115 .7zm31 17.7c22.6 3.1 46.8 15.3 63.5 32.1 20.2 20.4 31.4 45.7 33 74.7l.4 6.8H17.1l.5-6.8c.9-13.2 1.6-17.7 4.5-27.6 10.5-35.2 39.5-64.3 75.5-75.4 13.6-4.3 33.4-5.8 48.4-3.8zM87.5 151c-.3 1-2.3 5.4-4.4 9.7-2 4.3-4.3 9.3-5 11l-1.3 3.3H26.9l-1.9-4.5c-1.8-4.2-4-11.1-4.6-14.5-.2-.8-.5-2.7-.8-4.2l-.5-2.6 34.5-.1c33.7-.1 34.5 0 33.9 1.9zm31.6-.3v84.1l-.1 7.3-4.7-.6c-2.6-.3-5.5-.7-6.3-1-.8-.2-2.6-.6-4-.9-7-1.2-23.9-8.1-32-13.1-.5-.3.9-4.1 3.1-8.5 2.1-4.5 3.9-8.2 3.9-8.4 0-.3 2.7-6.2 6.1-13.3 3.4-7 8-17.1 10.4-22.3 2.3-5.2 5.9-13 8-17.3l3.8-7.7h5.8c4.9 0 5.9.3 6 1.7zm30 5c1.7 3.8 6.2 13.3 9.9 21.3s10.6 23 15.4 33.3c4.9 10.4 8.6 19 8.4 19.2-2 2-20.9 8.9-27.7 10.2-1.4.2-2.8.6-3.1.8-.4.2-3.5.7-7.1 1.1-3.5.3-6.7.8-7.1 1.1-.5.2-.8-.2-.9-.9 0-1.9-.1-77.1 0-85.6l.1-7.2h8.9l3.2 6.7zm91.3-3.4c-.7 4.6-5.5 20-6.7 21.4-.7 1-7.8 1.3-29.1 1.3h-28.1l-5.5-12.1c-3-6.7-5.6-12.5-5.8-13-.2-.4 16.8-.8 37.7-.8l38-.1-.5 3.3zm-173 40.6c.6 1-9.1 21.5-10.4 21.9-1.3.5-13.1-11.7-17.8-18.2l-3.1-4.3 15.4-.1c8.5 0 15.7.3 15.9.7zm155.4 1c-5.8 7.6-10.1 12.5-15.7 17.9-9.2 8.8-9.6 9-11.4 4.4-.8-2-3.3-7.5-5.5-12.2-2.2-4.7-4.2-9.2-4.5-10.1-.5-1.5 1.3-1.7 18.9-1.6 17.6 0 19.3.1 18.2 1.6z"/></svg>